<svg xmlns="http://www.w3.org/2000/svg" width="43" height="30" viewBox="0 0 43 30" version="1.1">
	<path d="M 0 15 L 0 30 11.593 30 L 23.186 30 19.003 25.003 C 16.702 22.255, 14.410 19.753, 13.909 19.444 C 12.326 18.465, 12.927 13.376, 14.829 11.655 C 17.292 9.425, 21.908 9.565, 24.441 11.945 C 26.508 13.886, 26.525 13.877, 33.637 6.945 L 40.763 -0 20.382 -0 L 0 0 0 15 M 36 23.500 L 29.558 30 36.279 30 L 43 30 43 23.500 C 43 19.925, 42.875 17, 42.721 17 C 42.568 17, 39.543 19.925, 36 23.500" stroke="none" fill="black" fill-rule="evenodd"/>
</svg>